<svg width="316" height="82" viewBox="0 0 316 82" fill="none" xmlns="http://www.w3.org/2000/svg">
<rect width="315.495" height="81.5934" rx="40.7967" fill="url(#paint0_linear_27_165)"/>
<path d="M34.1788 28.9395H37.9647V51.7856H34.1788V28.9395ZM43.8272 33.3129H43.2071L41.9669 32.0727V30.1797L43.2071 28.9395H45.3285L46.5361 30.2123V33.3129L44.7737 37.5884H42.6196L43.8272 33.3129ZM50.3419 28.9395H53.9647L60.949 44.6707H61.0143L67.9987 28.9395H71.6541V51.7856H68.0314V36.5114H67.9661L62.2219 48.8809H59.7415L54.0299 36.5114H53.9647V51.7856H50.3419V28.9395ZM91.454 28.9395H95.0441L103.301 51.7856H99.4502L97.4919 46.3678H88.9736L87.0153 51.7856H83.1641L91.454 28.9395ZM96.6107 43.202L93.2491 33.5414H93.1838L89.8874 43.202H96.6107ZM114.803 28.9395H128.641L131.807 32.1053V38.5022L130.404 39.9056L132.819 42.3208V48.3587L129.392 51.7856H114.803V28.9395ZM126.749 38.7633L128.087 37.4252V33.4434L126.781 32.1379H118.491V38.7633H126.749ZM127.532 48.5872L129.098 47.0206V43.3652L127.532 41.8312H118.491V48.5872H127.532ZM136.576 47.9671V28.9395H140.362V46.6942L142.222 48.5219H148.945L150.806 46.6942V28.9395H154.592V47.9671L150.773 51.7856H140.395L136.576 47.9671ZM165.277 42.3861L157.215 28.9395H161.36L167.137 38.8612H167.202L172.979 28.9395H177.124L169.063 42.3861V51.7856H165.277V42.3861ZM179.739 28.9395H195.666V32.1706H183.525V38.6981H194.719V41.8965H183.525V48.5545H195.666V51.7856H179.739V28.9395ZM216.771 44.4096V51.7856H212.985V45.3234L210.635 42.7451H203.194V51.7856H199.408V28.9395H213.311L216.64 32.3011V39.3182L214.258 41.7007L216.771 44.4096ZM203.194 39.6119H211.614L212.92 38.3064V33.4434L211.614 32.1379H203.194V39.6119Z" fill="#CFD0D0"/>
<path d="M266.678 49.8626L264.725 47.9099L278.115 34.5202H266.12V31.7307H282.857V48.4678H280.067V36.4729L266.678 49.8626Z" fill="#CFD0D0"/>
<line x1="238.434" y1="69.8076" x2="238.434" y2="11.7856" stroke="#212426" stroke-width="1.81319"/>
<defs>
<linearGradient id="paint0_linear_27_165" x1="157.747" y1="0" x2="157.747" y2="81.5934" gradientUnits="userSpaceOnUse">
<stop stop-color="#212426"/>
<stop offset="1"/>
</linearGradient>
</defs>
</svg>
