<svg width="316" height="82" viewBox="0 0 316 82" fill="none" xmlns="http://www.w3.org/2000/svg">
<rect width="315.495" height="81.5934" rx="12" fill="url(#paint0_linear_27_184)"/>
<path d="M34.3419 28.9395H37.4751V51.7856H34.3419V28.9395ZM43.3779 32.7907H42.8883L41.7787 31.681V30.0492L42.8883 28.9395H44.6508L45.7604 30.0492V32.7907L44.0307 36.9356H42.3009L43.3779 32.7907ZM49.8676 28.9395H53.0335L60.1811 45.6498H60.2463L67.4265 28.9395H70.5924V51.7856H67.5897V35.108H67.5245L61.3234 49.2073H59.104L52.9356 35.108H52.8703V51.7856H49.8676V28.9395ZM90.3081 28.9395H93.4413L101.666 51.7856H98.4348L96.4113 45.9762H87.3708L85.3473 51.7856H82.1162L90.3081 28.9395ZM95.5954 43.3326L91.9074 32.6601H91.8421L88.2193 43.3326H95.5954ZM113.182 28.9395H126.498L129.598 32.04V38.3717L128.129 39.873L130.61 42.3861V48.4893L127.314 51.7856H113.182V28.9395ZM125.062 38.9918L126.53 37.5231V33.0518L125.062 31.6158H116.249V38.9918H125.062ZM125.812 49.1094L127.542 47.4122V43.2999L125.812 41.5701H116.249V49.1094H125.812ZM134.699 48.0976V28.9395H137.832V47.0206L139.856 49.0441H146.971L148.994 47.0206V28.9395H152.128V48.0976L148.44 51.7856H138.387L134.699 48.0976ZM163.048 42.3208L155.052 28.9395H158.446L164.582 39.4487H164.647L170.783 28.9395H174.177L166.181 42.3208V51.7856H163.048V42.3208ZM177.129 28.9395H192.469V31.681H180.262V38.9592H191.522V41.6681H180.262V49.0441H192.469V51.7856H177.129V28.9395ZM213.319 44.6054V51.7856H210.186V45.3887L207.477 42.484H199.676V51.7856H196.543V28.9395H210.022L213.188 32.1053V39.2203L210.675 41.7333L213.319 44.6054ZM199.676 39.8077H208.619L210.088 38.3717V33.0518L208.619 31.6158H199.676V39.8077Z" fill="#CFD0D0"/>
<path d="M266.678 49.8626L264.725 47.9099L278.115 34.5202H266.12V31.7307H282.857V48.4678H280.067V36.4729L266.678 49.8626Z" fill="#CFD0D0"/>
<line x1="238.434" y1="69.8076" x2="238.434" y2="11.7856" stroke="#212426" stroke-width="1.81319"/>
<defs>
<linearGradient id="paint0_linear_27_184" x1="157.747" y1="0" x2="157.747" y2="81.5934" gradientUnits="userSpaceOnUse">
<stop stop-color="#212426"/>
<stop offset="0.848958"/>
</linearGradient>
</defs>
</svg>
