<svg width="189" height="74" viewBox="0 0 189 74" fill="none" xmlns="http://www.w3.org/2000/svg">
<path d="M115.775 1.94414C111.857 1.58856 107.86 1.33106 103.813 1.17779C103.341 1.17779 102.869 1.14101 102.391 1.13488C99.7139 1.04496 97.0143 1 94.2922 1C91.5702 1 88.8726 1.04496 86.1996 1.13488C85.7214 1.13488 85.2432 1.13488 84.7711 1.17779C80.7248 1.33106 76.7275 1.58856 72.8161 1.94414C72.8161 2.44074 72.7732 2.93733 72.7548 3.44005C76.3597 3.11717 80.0218 2.87602 83.7411 2.71662C84.2132 2.71662 84.6914 2.67371 85.1696 2.66144C88.186 2.547 91.2268 2.48978 94.2922 2.48978C97.3576 2.48978 100.403 2.547 103.427 2.66144C103.899 2.66144 104.377 2.66144 104.849 2.71662C108.565 2.86989 112.237 3.11512 115.836 3.44005C115.817 2.93733 115.799 2.44074 115.775 1.94414ZM94.3168 71.5102C91.2514 71.5102 88.2105 71.453 85.1941 71.3386C84.7159 71.3386 84.2377 71.3386 83.7657 71.2834C80.0504 71.1321 76.3883 70.891 72.7793 70.5599C72.7793 71.0627 72.8161 71.5654 72.8406 72.062C76.752 72.4114 80.7493 72.6751 84.7956 72.8222L86.2241 72.8713C88.8971 72.9632 91.5947 73 94.3168 73C97.0388 73 99.7364 72.9632 102.416 72.8713C102.759 72.3685 103.102 71.8597 103.446 71.3386C100.413 71.4571 97.3617 71.5143 94.2922 71.5102H94.3168ZM115.775 1.94414C111.857 1.58856 107.86 1.33106 103.813 1.17779C103.341 1.17779 102.869 1.14101 102.391 1.13488C99.7139 1.04496 97.0143 1 94.2922 1C91.5702 1 88.8726 1.04496 86.1996 1.13488C85.7214 1.13488 85.2432 1.13488 84.7711 1.17779C80.7248 1.33106 76.7275 1.58856 72.8161 1.94414C72.8161 2.44074 72.7732 2.93733 72.7548 3.44005C76.3597 3.11717 80.0218 2.87602 83.7411 2.71662C84.2132 2.71662 84.6914 2.67371 85.1696 2.66144C88.186 2.547 91.2268 2.48978 94.2922 2.48978C97.3576 2.48978 100.403 2.547 103.427 2.66144C103.899 2.66144 104.377 2.66144 104.849 2.71662C108.565 2.86989 112.237 3.11512 115.836 3.44005C115.817 2.93733 115.799 2.44074 115.775 1.94414ZM94.3168 71.5102C91.2514 71.5102 88.2105 71.453 85.1941 71.3386C84.7159 71.3386 84.2377 71.3386 83.7657 71.2834C80.0504 71.1321 76.3883 70.891 72.7793 70.5599C72.7793 71.0627 72.8161 71.5654 72.8406 72.062C76.752 72.4114 80.7493 72.6751 84.7956 72.8222L86.2241 72.8713C88.8971 72.9632 91.5947 73 94.3168 73C97.0388 73 99.7364 72.9632 102.416 72.8713C102.759 72.3685 103.102 71.8597 103.446 71.3386C100.413 71.4571 97.3617 71.5143 94.2922 71.5102H94.3168ZM115.775 1.94414C111.857 1.58856 107.86 1.33106 103.813 1.17779C103.341 1.17779 102.869 1.14101 102.391 1.13488C99.7139 1.04496 97.0143 1 94.2922 1C91.5702 1 88.8726 1.04496 86.1996 1.13488C85.7214 1.13488 85.2432 1.13488 84.7711 1.17779C80.7248 1.33106 76.7275 1.58856 72.8161 1.94414C72.8161 2.44074 72.7732 2.93733 72.7548 3.44005C76.3597 3.11717 80.0218 2.87602 83.7411 2.71662C84.2132 2.71662 84.6914 2.67371 85.1696 2.66144C88.186 2.547 91.2268 2.48978 94.2922 2.48978C97.3576 2.48978 100.403 2.547 103.427 2.66144C103.899 2.66144 104.377 2.66144 104.849 2.71662C108.565 2.86989 112.237 3.11512 115.836 3.44005C115.817 2.93733 115.799 2.44074 115.775 1.94414ZM94.3168 71.5102C91.2514 71.5102 88.2105 71.453 85.1941 71.3386C84.7159 71.3386 84.2377 71.3386 83.7657 71.2834C80.0504 71.1321 76.3883 70.891 72.7793 70.5599C72.7793 71.0627 72.8161 71.5654 72.8406 72.062C76.752 72.4114 80.7493 72.6751 84.7956 72.8222L86.2241 72.8713C88.8971 72.9632 91.5947 73 94.3168 73C97.0388 73 99.7364 72.9632 102.416 72.8713C102.759 72.3685 103.102 71.8597 103.446 71.3386C100.413 71.4571 97.3617 71.5143 94.2922 71.5102H94.3168ZM104.868 71.2834C104.396 71.314 103.918 71.3263 103.446 71.3386C100.429 71.453 97.3862 71.5102 94.3168 71.5102C91.2473 71.5102 88.2064 71.453 85.1941 71.3386C84.7159 71.3386 84.2377 71.3386 83.7657 71.2834C80.0504 71.1321 76.3883 70.891 72.7793 70.5599C72.4605 70.5599 72.1662 70.5048 71.8168 70.468C63.8409 69.7448 55.9171 68.5306 48.0906 66.8324C47.8699 67.2861 47.6492 67.752 47.4346 68.2057C55.4939 69.9687 63.6556 71.2259 71.8719 71.97C72.1969 72.0068 72.5157 72.0375 72.8406 72.062C76.752 72.4114 80.7493 72.6751 84.7956 72.8222L86.2241 72.8713C88.8971 72.9632 91.5947 73 94.3168 73C97.0388 73 99.7364 72.9632 102.416 72.8713L103.838 72.8222C107.884 72.6689 111.881 72.4114 115.799 72.062C115.799 71.5654 115.842 71.0627 115.854 70.5599C112.231 70.8849 108.559 71.1301 104.843 71.2834H104.868ZM115.775 1.94414C111.857 1.58856 107.86 1.33106 103.813 1.17779C103.341 1.17779 102.869 1.14101 102.391 1.13488C99.7139 1.04496 97.0143 1 94.2922 1C91.5702 1 88.8726 1.04496 86.1996 1.13488C85.7214 1.13488 85.2432 1.13488 84.7711 1.17779C80.7248 1.33106 76.7275 1.58856 72.8161 1.94414C72.8161 2.44074 72.7732 2.93733 72.7548 3.44005C76.3597 3.11717 80.0218 2.87602 83.7411 2.71662C84.2132 2.71662 84.6914 2.67371 85.1696 2.66144C88.186 2.547 91.2268 2.48978 94.2922 2.48978C97.3576 2.48978 100.403 2.547 103.427 2.66144C103.899 2.66144 104.377 2.66144 104.849 2.71662C108.565 2.86989 112.237 3.11512 115.836 3.44005C115.817 2.93733 115.799 2.44074 115.775 1.94414ZM104.843 71.2834C104.371 71.314 103.893 71.3263 103.421 71.3386C100.405 71.453 97.3617 71.5102 94.2922 71.5102C91.2228 71.5102 88.1819 71.453 85.1696 71.3386C84.6914 71.3386 84.2132 71.3386 83.7411 71.2834C80.0259 71.1321 76.3638 70.891 72.7548 70.5599C72.436 70.5599 72.1417 70.5048 71.7922 70.468C63.8163 69.7448 55.8926 68.5306 48.0661 66.8324C47.8454 67.2861 47.6247 67.752 47.4101 68.2057C55.4694 69.9687 63.6311 71.2259 71.8474 71.97C72.1723 72.0068 72.4911 72.0375 72.8161 72.062C76.7275 72.4114 80.7248 72.6751 84.7711 72.8222L86.1996 72.8713C88.8726 72.9632 91.5702 73 94.2922 73C97.0143 73 99.7119 72.9632 102.391 72.8713L103.813 72.8222C107.86 72.6689 111.857 72.4114 115.775 72.062C115.775 71.5654 115.817 71.0627 115.83 70.5599C112.231 70.8849 108.559 71.1301 104.843 71.2834ZM160.02 11.3426C154.221 9.17581 148.281 7.40606 142.241 6.04564L141.162 5.80041C133.1 4.03831 124.937 2.77907 116.719 2.02997C116.4 2.02997 116.075 1.96253 115.756 1.94414C111.839 1.58856 107.841 1.33106 103.795 1.17779C103.323 1.17779 102.851 1.14101 102.373 1.13488C99.7078 1.04496 97.0143 1 94.2922 1C91.5702 1 88.8726 1.04496 86.1996 1.13488C85.7214 1.13488 85.2432 1.13488 84.7711 1.17779C80.7248 1.33106 76.7275 1.58856 72.8161 1.94414C72.4911 1.94414 72.203 1.99932 71.8474 2.02997C63.6314 2.77905 55.4698 4.0383 47.4101 5.80041L46.3311 6.04564C40.2914 7.40635 34.3513 9.1761 28.5518 11.3426C10.7786 18.0926 1 27.2091 1 37C1 46.7909 10.8093 55.9135 28.5456 62.6635C34.3463 64.8251 40.2862 66.5928 46.3249 67.9544L47.404 68.2057C55.4633 69.9687 63.625 71.2259 71.8413 71.97C72.1662 72.0068 72.485 72.0375 72.8099 72.062C76.7214 72.4114 80.7187 72.6751 84.765 72.8222L86.1935 72.8713C88.8665 72.9632 91.564 73 94.2861 73C97.0082 73 99.7057 72.9632 102.385 72.8713L103.807 72.8222C107.854 72.6689 111.851 72.4114 115.768 72.062C116.087 72.062 116.412 72.0068 116.731 71.97C124.949 71.2259 133.113 69.9687 141.174 68.2057L142.253 67.9544C148.292 66.593 154.232 64.8254 160.033 62.6635C177.812 55.9196 187.584 46.8031 187.584 37C187.584 27.1969 177.806 18.0926 160.039 11.3426H160.02ZM159.83 61.2044C153.893 63.4214 147.809 65.2241 141.622 66.5995L140.537 66.8324C132.71 68.5306 124.787 69.7448 116.811 70.468C116.492 70.5048 116.198 70.5415 115.848 70.5599C112.249 70.8849 108.577 71.1301 104.862 71.2834C104.39 71.314 103.911 71.3263 103.439 71.3386C100.423 71.453 97.3801 71.5102 94.3106 71.5102C91.2411 71.5102 88.2003 71.453 85.188 71.3386C84.7098 71.3386 84.2316 71.3386 83.7595 71.2834C80.0443 71.1321 76.3821 70.891 72.7732 70.5599C72.4544 70.5599 72.1601 70.5048 71.8106 70.468C63.8347 69.7448 55.911 68.5306 48.0845 66.8324L47.0055 66.5995C40.8184 65.2249 34.7342 63.4222 28.797 61.2044C11.735 54.7364 1.9564 45.908 1.9564 37C1.9564 28.092 11.7657 19.2698 28.7786 12.8018C34.714 10.5783 40.7985 8.77551 46.9871 7.40668L48.0661 7.17371C55.8926 5.47549 63.8163 4.26133 71.7922 3.53815C72.111 3.50136 72.4053 3.47684 72.7548 3.44619C76.3597 3.1233 80.0218 2.88215 83.7411 2.72275C84.2132 2.72275 84.6914 2.67984 85.1696 2.66757C88.186 2.55313 91.2268 2.49591 94.2922 2.49591C97.3576 2.49591 100.403 2.55109 103.427 2.66144C103.899 2.66144 104.377 2.66144 104.849 2.71662C108.565 2.86989 112.237 3.11512 115.836 3.44005C116.161 3.44005 116.48 3.49523 116.798 3.53202C124.772 4.25747 132.694 5.47368 140.518 7.17371C140.88 7.24727 141.242 7.33311 141.604 7.41281C147.792 8.78249 153.876 10.5853 159.812 12.8079C176.856 19.2759 186.628 28.0981 186.628 37.0061C186.628 45.9142 176.856 54.7364 159.83 61.2044ZM104.862 71.2834C104.39 71.314 103.911 71.3263 103.439 71.3386C100.423 71.453 97.3801 71.5102 94.3106 71.5102C91.2411 71.5102 88.2003 71.453 85.188 71.3386C84.7098 71.3386 84.2316 71.3386 83.7595 71.2834C80.0443 71.1321 76.3821 70.891 72.7732 70.5599C72.4544 70.5599 72.1601 70.5048 71.8106 70.468C63.8347 69.7448 55.911 68.5306 48.0845 66.8324C47.8638 67.2861 47.6431 67.752 47.4285 68.2057C55.4878 69.9687 63.6495 71.2259 71.8658 71.97C72.1907 72.0068 72.5095 72.0375 72.8345 72.062C76.7459 72.4114 80.7432 72.6751 84.7895 72.8222L86.218 72.8713C88.891 72.9632 91.5886 73 94.3106 73C97.0327 73 99.7302 72.9632 102.409 72.8713L103.832 72.8222C107.878 72.6689 111.875 72.4114 115.793 72.062C115.793 71.5654 115.836 71.0627 115.848 70.5599C112.231 70.8849 108.559 71.1301 104.843 71.2834H104.862ZM102.409 1.13488C99.72 1.04496 97.0143 1 94.2922 1C91.5702 1 88.8726 1.04496 86.1996 1.13488C85.8563 1.6376 85.5068 2.14033 85.1696 2.66144C88.186 2.547 91.2268 2.48978 94.2922 2.48978C97.3576 2.48978 100.403 2.547 103.427 2.66144C103.078 2.14033 102.734 1.65599 102.391 1.13488H102.409ZM104.862 71.2834C104.39 71.314 103.911 71.3263 103.439 71.3386C100.423 71.453 97.3801 71.5102 94.3106 71.5102C91.2411 71.5102 88.2003 71.453 85.188 71.3386C84.7098 71.3386 84.2316 71.3386 83.7595 71.2834C80.0443 71.1321 76.3821 70.891 72.7732 70.5599C72.4544 70.5599 72.1601 70.5048 71.8106 70.468C63.8347 69.7448 55.911 68.5306 48.0845 66.8324C47.8638 67.2861 47.6431 67.752 47.4285 68.2057C55.4878 69.9687 63.6495 71.2259 71.8658 71.97C72.1907 72.0068 72.5095 72.0375 72.8345 72.062C76.7459 72.4114 80.7432 72.6751 84.7895 72.8222L86.218 72.8713C88.891 72.9632 91.5886 73 94.3106 73C97.0327 73 99.7302 72.9632 102.409 72.8713L103.832 72.8222C107.878 72.6689 111.875 72.4114 115.793 72.062C115.793 71.5654 115.836 71.0627 115.848 70.5599C112.231 70.8849 108.559 71.1301 104.843 71.2834H104.862ZM104.862 71.2834C104.39 71.314 103.911 71.3263 103.439 71.3386C100.423 71.453 97.3801 71.5102 94.3106 71.5102C91.2411 71.5102 88.2003 71.453 85.188 71.3386C84.7098 71.3386 84.2316 71.3386 83.7595 71.2834C80.0443 71.1321 76.3821 70.891 72.7732 70.5599C72.4544 70.5599 72.1601 70.5048 71.8106 70.468C63.8347 69.7448 55.911 68.5306 48.0845 66.8324C47.8638 67.2861 47.6431 67.752 47.4285 68.2057C55.4878 69.9687 63.6495 71.2259 71.8658 71.97C72.1907 72.0068 72.5095 72.0375 72.8345 72.062C76.7459 72.4114 80.7432 72.6751 84.7895 72.8222L86.218 72.8713C88.891 72.9632 91.5886 73 94.3106 73C97.0327 73 99.7302 72.9632 102.409 72.8713L103.832 72.8222C107.878 72.6689 111.875 72.4114 115.793 72.062C115.793 71.5654 115.836 71.0627 115.848 70.5599C112.231 70.8849 108.559 71.1301 104.843 71.2834H104.862ZM116.755 2.00545C116.437 2.00545 116.112 1.93801 115.793 1.91962C111.875 1.56403 107.878 1.30654 103.832 1.15327C103.36 1.15327 102.888 1.11649 102.409 1.11035C99.72 1.03678 97.0143 1 94.2922 1C91.5702 1 88.8726 1.04496 86.1996 1.13488C85.7214 1.13488 85.2432 1.13488 84.7711 1.17779C80.7248 1.33106 76.7275 1.58856 72.8161 1.94414C72.4911 1.94414 72.203 1.99932 71.8474 2.02997C63.6314 2.77905 55.4698 4.0383 47.4101 5.80041C47.6247 6.25409 47.8454 6.7139 48.0661 7.16757C55.8926 5.46936 63.8163 4.2552 71.7922 3.53202C72.111 3.49523 72.4053 3.47071 72.7548 3.44005C76.3597 3.11717 80.0218 2.87602 83.7411 2.71662C84.2132 2.71662 84.6914 2.67371 85.1696 2.66144C88.186 2.547 91.2268 2.48978 94.2922 2.48978C97.3576 2.48978 100.403 2.547 103.427 2.66144C103.899 2.66144 104.377 2.66144 104.849 2.71662C108.565 2.86989 112.237 3.11512 115.836 3.44005C116.161 3.44005 116.48 3.49523 116.798 3.53202C124.772 4.25747 132.694 5.47368 140.518 7.17371L141.181 5.80654C133.119 4.04238 124.955 2.78109 116.737 2.02997L116.755 2.00545ZM94.2922 71.5102C91.2268 71.5102 88.186 71.453 85.1696 71.3386C84.6914 71.3386 84.2132 71.3386 83.7411 71.2834C80.0259 71.1321 76.3638 70.891 72.7548 70.5599C72.7548 71.0627 72.7915 71.5654 72.8161 72.062C76.7275 72.4114 80.7248 72.6751 84.7711 72.8222L86.1996 72.8713C88.8726 72.9632 91.5702 73 94.2922 73C97.0143 73 99.7119 72.9632 102.391 72.8713C102.734 72.3685 103.078 71.8597 103.421 71.3386C100.405 71.4571 97.3617 71.5143 94.2922 71.5102ZM115.75 1.94414C111.832 1.58856 107.835 1.33106 103.789 1.17779C103.317 1.17779 102.845 1.14101 102.366 1.13488C99.7057 1.04496 97.0143 1 94.2922 1C91.5702 1 88.8726 1.04496 86.1996 1.13488C85.7214 1.13488 85.2432 1.13488 84.7711 1.17779C80.7248 1.33106 76.7275 1.58856 72.8161 1.94414C72.8161 2.44074 72.7732 2.93733 72.7548 3.44005C76.3597 3.11717 80.0218 2.87602 83.7411 2.71662C84.2132 2.71662 84.6914 2.67371 85.1696 2.66144C88.186 2.547 91.2268 2.48978 94.2922 2.48978C97.3576 2.48978 100.403 2.547 103.427 2.66144C103.899 2.66144 104.377 2.66144 104.849 2.71662C108.565 2.86989 112.237 3.11512 115.836 3.44005C115.817 2.93733 115.799 2.44074 115.775 1.94414H115.75ZM94.2922 71.5102C91.2268 71.5102 88.186 71.453 85.1696 71.3386C84.6914 71.3386 84.2132 71.3386 83.7411 71.2834C80.0259 71.1321 76.3638 70.891 72.7548 70.5599C72.7548 71.0627 72.7915 71.5654 72.8161 72.062C76.7275 72.4114 80.7248 72.6751 84.7711 72.8222L86.1996 72.8713C88.8726 72.9632 91.5702 73 94.2922 73C97.0143 73 99.7119 72.9632 102.391 72.8713C102.734 72.3685 103.078 71.8597 103.421 71.3386C100.405 71.4571 97.3617 71.5143 94.2922 71.5102ZM115.75 1.94414C111.832 1.58856 107.835 1.33106 103.789 1.17779C103.317 1.17779 102.845 1.14101 102.366 1.13488C99.7057 1.04496 97.0143 1 94.2922 1C91.5702 1 88.8726 1.04496 86.1996 1.13488C85.7214 1.13488 85.2432 1.13488 84.7711 1.17779C80.7248 1.33106 76.7275 1.58856 72.8161 1.94414C72.8161 2.44074 72.7732 2.93733 72.7548 3.44005C76.3597 3.11717 80.0218 2.87602 83.7411 2.71662C84.2132 2.71662 84.6914 2.67371 85.1696 2.66144C88.186 2.547 91.2268 2.48978 94.2922 2.48978C97.3576 2.48978 100.403 2.547 103.427 2.66144C103.899 2.66144 104.377 2.66144 104.849 2.71662C108.565 2.86989 112.237 3.11512 115.836 3.44005C115.817 2.93733 115.799 2.44074 115.775 1.94414H115.75Z" fill="#E6E7E8" stroke="#E6E7E8" stroke-width="1.85" stroke-miterlimit="10"/>
<path d="M47.9927 28.4964V32.5611C47.0376 31.1242 45.7361 29.9509 44.2082 29.1495C42.6803 28.348 40.9752 27.9442 39.2502 27.9753C32.8067 27.9753 28.0186 33.0516 28.0186 39.7587C28.0186 46.4658 32.8312 51.5482 39.2747 51.5482C41.0002 51.578 42.7055 51.173 44.2333 50.3705C45.7612 49.568 47.0625 48.3939 48.0172 46.9562V51.0148H51.8121V28.4964H47.9927ZM39.9613 47.882C38.8899 47.9065 37.8246 47.7128 36.8303 47.3127C35.836 46.9126 34.9335 46.3145 34.1776 45.5546C33.4218 44.7948 32.8284 43.8891 32.4336 42.8927C32.0388 41.8963 31.8507 40.83 31.881 39.7587C31.881 38.7008 32.0893 37.6532 32.4942 36.6758C32.899 35.6985 33.4924 34.8104 34.2405 34.0623C34.9885 33.3143 35.8766 32.7209 36.854 32.316C37.8313 31.9112 38.8789 31.7028 39.9368 31.7028C40.9947 31.7028 42.0423 31.9112 43.0197 32.316C43.997 32.7209 44.8851 33.3143 45.6332 34.0623C46.3812 34.8104 46.9746 35.6985 47.3795 36.6758C47.7843 37.6532 47.9927 38.7008 47.9927 39.7587C48.0235 40.826 47.8375 41.8886 47.446 42.882C47.0545 43.8754 46.4656 44.7792 45.7148 45.5385C44.9641 46.2978 44.0671 46.897 43.0782 47.2998C42.0893 47.7026 41.029 47.9007 39.9613 47.882Z" fill="white"/>
<path d="M71.2103 31.9482V28.4966H64.4664V22.4578H60.6592V28.4966H56.6006V31.9482H60.6592V45.0068C60.6592 49.1635 62.9092 51.5484 67.2804 51.5484C68.6485 51.5864 70.003 51.2673 71.2103 50.6226V47.0238C70.2528 47.5619 69.1756 47.8507 68.0774 47.8638C65.7784 47.8638 64.4541 46.8031 64.4541 44.3753V31.9482H71.2103Z" fill="white"/>
<path d="M85.7338 27.9756C78.8919 27.9756 73.7236 33.0519 73.7236 39.759C73.7236 46.466 78.9041 51.5485 85.7338 51.5485C92.5635 51.5485 97.695 46.4722 97.695 39.759C97.695 33.0458 92.5329 27.9756 85.7338 27.9756ZM85.7338 47.8823C84.6644 47.9034 83.6018 47.7073 82.6104 47.3057C81.619 46.9041 80.7194 46.3054 79.9662 45.5459C79.213 44.7863 78.6219 43.8818 78.2285 42.8871C77.8352 41.8924 77.6479 40.8282 77.678 39.759C77.6483 38.6819 77.8348 37.6099 78.2264 36.6062C78.618 35.6025 79.2069 34.6874 79.9582 33.9151C80.7094 33.1428 81.6079 32.529 82.6004 32.1098C83.593 31.6906 84.6595 31.4747 85.7369 31.4747C86.8143 31.4747 87.8808 31.6906 88.8734 32.1098C89.8659 32.529 90.7644 33.1428 91.5157 33.9151C92.2669 34.6874 92.8558 35.6025 93.2474 36.6062C93.6391 37.6099 93.8255 38.6819 93.7958 39.759C93.8268 40.829 93.64 41.8941 93.2466 42.8896C92.8532 43.8851 92.2615 44.7903 91.5074 45.5501C90.7534 46.3098 89.8528 46.9084 88.8602 47.3093C87.8677 47.7102 86.804 47.9051 85.7338 47.8823Z" fill="white"/>
<path d="M129.569 27.9756C125.946 27.9756 123.077 29.5635 121.403 32.3898C120.079 29.6002 117.381 27.9756 113.85 27.9756C110.674 27.9756 108.111 29.2508 106.493 31.5498V28.4844H102.692V51.0151H106.493V37.6438C106.493 34.0144 108.945 31.6357 112.624 31.6357C116.198 31.6357 118.491 33.9715 118.491 37.5457V51.0335H122.292V37.6438C122.292 34.0144 124.744 31.6357 128.423 31.6357C132.101 31.6357 134.296 33.9715 134.296 37.5457V51.0335H138.091V36.4851C138.085 31.3291 134.731 27.9756 129.569 27.9756Z" fill="white"/>
<path d="M152.565 37.9074C149.561 37.2024 146.998 36.577 146.998 34.3761C146.998 32.4326 149.162 31.4088 151.768 31.4088C154.042 31.3991 156.229 32.2792 157.862 33.8611L159.977 31.0838C157.708 29.0634 154.763 27.9693 151.725 28.0184C147.09 28.0184 143.142 30.2684 143.142 34.6397C143.142 39.3604 147.513 40.5007 151.216 41.4326C154.177 42.1376 156.691 42.7998 156.691 44.9639C156.691 46.9994 154.441 48.1458 151.486 48.1458C150.188 48.1686 148.899 47.9258 147.698 47.4324C146.497 46.939 145.41 46.2054 144.503 45.2766L142.382 48.0171C144.853 50.3395 148.132 51.6064 151.523 51.5484C156.599 51.5484 160.615 49.0286 160.615 44.5716C160.596 39.8938 156.268 38.7841 152.565 37.9074Z" fill="white"/>
<path d="M49.7648 22.4578C49.3851 22.4639 49.0158 22.5821 48.7031 22.7975C48.3905 23.0129 48.1485 23.316 48.0077 23.6686C47.8668 24.0212 47.8334 24.4076 47.9116 24.7792C47.9898 25.1507 48.1762 25.4908 48.4472 25.7567C48.7182 26.0227 49.0618 26.2025 49.4348 26.2736C49.8077 26.3448 50.1934 26.304 50.5433 26.1565C50.8931 26.009 51.1916 25.7614 51.401 25.4447C51.6105 25.128 51.7217 24.7565 51.7205 24.3768C51.7231 24.1209 51.674 23.8672 51.5761 23.6308C51.4783 23.3944 51.3337 23.1802 51.1511 23.001C50.9685 22.8218 50.7516 22.6813 50.5133 22.588C50.2751 22.4947 50.0205 22.4504 49.7648 22.4578ZM49.7648 25.7072C49.4283 25.6843 49.1131 25.5345 48.8829 25.2881C48.6527 25.0417 48.5246 24.7171 48.5246 24.3798C48.5246 24.0426 48.6527 23.718 48.8829 23.4716C49.1131 23.2252 49.4283 23.0754 49.7648 23.0525C50.1012 23.0754 50.4164 23.2252 50.6466 23.4716C50.8768 23.718 51.0049 24.0426 51.0049 24.3798C51.0049 24.7171 50.8768 25.0417 50.6466 25.2881C50.4164 25.5345 50.1012 25.6843 49.7648 25.7072Z" fill="white" stroke="white" stroke-miterlimit="10"/>
</svg>
