<svg width="280" height="82" viewBox="0 0 280 82" fill="none" xmlns="http://www.w3.org/2000/svg">
<rect width="279.495" height="81.5934" rx="12" fill="url(#paint0_linear_106_788)"/>
<path d="M31.6314 28.9395H45.1106L48.2765 32.1053V39.6772L45.078 42.8756H34.7646V51.7856H31.6314V28.9395ZM43.7072 40.1994L45.1759 38.7633V33.0518L43.7072 31.6158H34.7646V40.1994H43.7072ZM69.1279 44.6054V51.7856H65.9947V45.3887L63.2858 42.484H55.4855V51.7856H52.3523V28.9395H65.8315L68.9974 32.1053V39.2203L66.4843 41.7333L69.1279 44.6054ZM55.4855 39.8077H64.4281L65.8968 38.3717V33.0518L64.4281 31.6158H55.4855V39.8077ZM73.703 48.1303V32.5949L77.3584 28.9395H88.1287L91.7841 32.5949V48.1303L88.1287 51.7856H77.3584L73.703 48.1303ZM86.6274 49.0441L88.6509 47.0206V33.7045L86.6274 31.681H78.8597L76.8362 33.7045V47.0206L78.8597 49.0441H86.6274ZM96.1769 48.1303V32.5949L99.8323 28.9395H110.08L113.605 32.4643V35.0427H110.472V33.574L108.579 31.681H101.334L99.3101 33.7045V47.0206L101.334 49.0441H108.579L110.472 47.1511V45.6825H113.605V48.2608L110.08 51.7856H99.8323L96.1769 48.1303ZM117.511 28.9395H132.851V31.681H120.644V38.9592H131.904V41.6681H120.644V49.0441H132.851V51.7856H117.511V28.9395ZM136.925 28.9395H152.265V31.681H140.058V38.9592H151.318V41.6681H140.058V49.0441H152.265V51.7856H136.925V28.9395ZM156.339 28.9395H170.014L173.702 32.6275V48.0976L170.014 51.7856H156.339V28.9395ZM168.546 49.0441L170.569 47.0206V33.7045L168.546 31.681H159.472V49.0441H168.546Z" fill="#CFD0D0"/>
<path d="M234.13 49.8626L232.178 47.9099L245.567 34.5202H233.572V31.7307H250.31V48.4678H247.52V36.4729L234.13 49.8626Z" fill="#CFD0D0"/>
<line x1="203.274" y1="69.8076" x2="203.274" y2="11.7856" stroke="#212426" stroke-width="1.81319"/>
<defs>
<linearGradient id="paint0_linear_106_788" x1="139.747" y1="0" x2="139.747" y2="81.5934" gradientUnits="userSpaceOnUse">
<stop stop-color="#212426"/>
<stop offset="0.848958"/>
</linearGradient>
</defs>
</svg>
