<svg width="236" height="60" viewBox="0 0 236 60" fill="none" xmlns="http://www.w3.org/2000/svg">
<rect width="236" height="60" rx="30" fill="url(#paint0_linear_107_169)"/>
<path d="M84.636 33.1367V38.4167H82.332V33.7127L80.34 31.5767H74.604V38.4167H72.3V21.6167H82.212L84.54 23.9447V29.1767L82.692 31.0247L84.636 33.1367ZM74.604 29.6087H81.18L82.26 28.5527V24.6407L81.18 23.5847H74.604V29.6087ZM88.2403 21.6167H99.5203V23.6327H90.5443V28.9847H98.8243V30.9767H90.5443V36.4007H99.5203V38.4167H88.2403V21.6167ZM102.517 21.6167H104.821V36.4247H113.317V38.4167H102.517V21.6167ZM115.715 21.6167H126.995V23.6327H118.019V28.9847H126.299V30.9767H118.019V36.4007H126.995V38.4167H115.715V21.6167ZM134.575 21.6167H136.879L142.927 38.4167H140.551L139.063 34.1447H132.415L130.927 38.4167H128.551L134.575 21.6167ZM138.463 32.2007L135.751 24.3527H135.703L133.039 32.2007H138.463ZM144.493 36.0887V34.2647H146.773V35.3447L147.805 36.4007H153.301L154.357 35.3207V31.8647L153.301 30.8327H146.869L144.541 28.4807V23.9447L146.869 21.6167H154.117L156.445 23.9447V25.7927H154.189V24.6887L153.133 23.6327H147.877L146.821 24.6887V27.7607L147.877 28.8167H154.309L156.637 31.1447V36.0407L154.261 38.4167H146.821L144.493 36.0887ZM159.879 21.6167H171.159V23.6327H162.183V28.9847H170.463V30.9767H162.183V36.4007H171.159V38.4167H159.879V21.6167Z" fill="#CFD0D0"/>
<defs>
<linearGradient id="paint0_linear_107_169" x1="118" y1="0" x2="118" y2="60" gradientUnits="userSpaceOnUse">
<stop stop-color="#2D3134"/>
<stop offset="1" stop-color="#212426"/>
</linearGradient>
</defs>
</svg>
