<svg width="322" height="88" viewBox="0 0 322 88" fill="none" xmlns="http://www.w3.org/2000/svg">
<g filter="url(#filter0_d_27_164)">
<rect width="315.495" height="81.5934" rx="40.7967" fill="url(#paint0_linear_27_164)"/>
</g>
<path d="M34.1788 28.9395H37.9647V51.7856H34.1788V28.9395ZM43.8272 33.3129H43.2071L41.9669 32.0727V30.1797L43.2071 28.9395H45.3285L46.5361 30.2123V33.3129L44.7737 37.5884H42.6196L43.8272 33.3129ZM50.3419 28.9395H53.9647L60.949 44.6707H61.0143L67.9987 28.9395H71.6541V51.7856H68.0314V36.5114H67.9661L62.2219 48.8809H59.7415L54.0299 36.5114H53.9647V51.7856H50.3419V28.9395ZM91.454 28.9395H95.0441L103.301 51.7856H99.4502L97.4919 46.3678H88.9736L87.0153 51.7856H83.1641L91.454 28.9395ZM96.6107 43.202L93.2491 33.5414H93.1838L89.8874 43.202H96.6107ZM114.314 48.424V45.5519H118.034V47.2817L119.275 48.5219H126.39L127.695 47.2164V43.0062L126.422 41.7333H117.741L114.379 38.4043V32.3011L117.741 28.9395H127.793L131.155 32.3011V35.2059H127.434V33.4434L126.161 32.2032H119.372L118.1 33.4434V37.2294L119.372 38.4696H128.054L131.416 41.8312V48.3587L127.989 51.7856H117.675L114.314 48.424ZM135.492 28.9395H151.419V32.1706H139.278V38.6981H150.473V41.8965H139.278V48.5545H151.419V51.7856H135.492V28.9395ZM155.161 28.9395H158.947V48.5545H170.436V51.7856H155.161V28.9395ZM173.364 28.9395H177.15V48.5545H188.639V51.7856H173.364V28.9395ZM191.567 28.9395H207.494V32.1706H195.353V38.6981H206.548V41.8965H195.353V48.5545H207.494V51.7856H191.567V28.9395ZM228.6 44.4096V51.7856H224.814V45.3234L222.464 42.7451H215.022V51.7856H211.236V28.9395H225.14L228.469 32.3011V39.3182L226.086 41.7007L228.6 44.4096ZM215.022 39.6119H223.443L224.748 38.3064V33.4434L223.443 32.1379H215.022V39.6119Z" fill="#CFD0D0"/>
<path d="M266.678 49.8626L264.725 47.9099L278.115 34.5202H266.12V31.7307H282.857V48.4678H280.067V36.4729L266.678 49.8626Z" fill="#CFD0D0"/>
<line x1="238.434" y1="69.8076" x2="238.434" y2="11.7856" stroke="#212426" stroke-width="1.81319"/>
<defs>
<filter id="filter0_d_27_164" x="0" y="0" width="321.495" height="87.5934" filterUnits="userSpaceOnUse" color-interpolation-filters="sRGB">
<feFlood flood-opacity="0" result="BackgroundImageFix"/>
<feColorMatrix in="SourceAlpha" type="matrix" values="0 0 0 0 0 0 0 0 0 0 0 0 0 0 0 0 0 0 127 0" result="hardAlpha"/>
<feOffset dx="3" dy="3"/>
<feGaussianBlur stdDeviation="1.5"/>
<feComposite in2="hardAlpha" operator="out"/>
<feColorMatrix type="matrix" values="0 0 0 0 0 0 0 0 0 0 0 0 0 0 0 0 0 0 0.38 0"/>
<feBlend mode="normal" in2="BackgroundImageFix" result="effect1_dropShadow_27_164"/>
<feBlend mode="normal" in="SourceGraphic" in2="effect1_dropShadow_27_164" result="shape"/>
</filter>
<linearGradient id="paint0_linear_27_164" x1="157.747" y1="0" x2="157.747" y2="81.5934" gradientUnits="userSpaceOnUse">
<stop offset="0.9999" stop-color="#1A1C1D"/>
<stop offset="1"/>
</linearGradient>
</defs>
</svg>
