<svg width="188" height="58" viewBox="0 0 188 58" fill="none" xmlns="http://www.w3.org/2000/svg">
<rect width="187.303" height="58" rx="8.5301" fill="url(#paint0_linear_106_797)"/>
<path d="M22.1306 33.4086V19.7902H24.3578V32.643L25.7962 34.0814H30.8538L32.2922 32.643V19.7902H34.5194V33.4086L31.8978 36.0302H24.7522L22.1306 33.4086ZM38.106 19.7902H40.194L48.2444 32.3646H48.2908V19.7902H50.4252V36.0302H48.3372L40.2868 23.4558H40.2404V36.0302H38.106V19.7902ZM54.0134 19.7902H56.2406V34.1046H64.4534V36.0302H54.0134V19.7902ZM66.1997 33.4318V22.3886L68.7981 19.7902H76.4541L79.0525 22.3886V33.4318L76.4541 36.0302H68.7981L66.1997 33.4318ZM75.3869 34.0814L76.8253 32.643V23.1774L75.3869 21.739H69.8653L68.4269 23.1774V32.643L69.8653 34.0814H75.3869ZM82.1751 33.4318V22.3886L84.7735 19.7902H92.0583L94.5639 22.2958V24.1286H92.3367V23.0846L90.9911 21.739H85.8407L84.4023 23.1774V32.643L85.8407 34.0814H90.9911L92.3367 32.7358V31.6918H94.5639V33.5246L92.0583 36.0302H84.7735L82.1751 33.4318ZM97.3403 19.7902H99.5675V26.959H102.908L107.015 19.7902H109.474L104.811 27.887L109.822 36.0302H107.316L102.908 28.9078H99.5675V36.0302H97.3403V19.7902Z" fill="#CFD0D0"/>
<path d="M155.413 35.4444L154.025 34.0563L163.543 24.5384H155.017V22.5555H166.914V34.4529H164.931V25.9264L155.413 35.4444Z" fill="#CFD0D0"/>
<line x1="131.701" y1="49.6221" x2="131.701" y2="8.37769" stroke="#212426" stroke-width="1.28889"/>
<defs>
<linearGradient id="paint0_linear_106_797" x1="93.6514" y1="0" x2="93.6514" y2="58" gradientUnits="userSpaceOnUse">
<stop stop-color="#212426"/>
<stop offset="0.848958"/>
</linearGradient>
</defs>
</svg>
